# xmcd CD database file
#
# Track frame offsets:
#	150
#	21092
#	42283
#	59582
#	80695
#	103270
#	130986
#	149355
#	171551
#	190239
#
# Disc length: 2837 seconds
#
# Revision: 1
# Processed by: cddbd v1.5.2PL0 Copyright (c) Steve Scherf et al.
# Submitted via: CDex 1.51
#
DISCID=960b130a
DTITLE=Tommy O'Sullivan - Song Ablaze
DYEAR=2006
DGENRE=Folk
TTITLE0=One more dollar
TTITLE1=The contender
TTITLE2=Fiddle and bow
TTITLE3=Make me believe
TTITLE4=She moved through the fair
TTITLE5=The people of West Cork and Kerry
TTITLE6=Neidín
TTITLE7=Times
TTITLE8=Inhibitions
TTITLE9=Shiver me timbers
EXTD=YEAR: 2006
EXTT0=
EXTT1=
EXTT2=
EXTT3=
EXTT4=
EXTT5=
EXTT6=
EXTT7=
EXTT8=
EXTT9=
PLAYORDER=
